<svg xmlns="http://www.w3.org/2000/svg" width="1280" height="644" style="cursor: move;"><g transform="translate(-134.67017178154754,-157.33591873904652) scale(1.4479381723795648)"><path class="link" marker-end="" d="M585,232, 660,312" style="stroke-width: 1.44269; stroke-opacity: 0.87; stroke: rgb(80, 80, 80);"></path><path class="link" marker-end="" d="M585,232, 660,352" style="stroke-width: 0.209375; stroke-opacity: 0.87; stroke: rgb(80, 80, 80);"></path><path class="link" marker-end="" d="M585,272, 660,312" style="stroke-width: 1.99395; stroke-opacity: 0.87; stroke: rgb(80, 80, 80);"></path><path class="link" marker-end="" d="M585,272, 660,352" style="stroke-width: 0.539493; stroke-opacity: 0.87; stroke: rgb(80, 80, 80);"></path><path class="link" marker-end="" d="M585,312, 660,312" style="stroke-width: 0.528771; stroke-opacity: 0.87; stroke: rgb(80, 80, 80);"></path><path class="link" marker-end="" d="M585,312, 660,352" style="stroke-width: 1.89453; stroke-opacity: 0.87; stroke: rgb(80, 80, 80);"></path><path class="link" marker-end="" d="M585,352, 660,312" style="stroke-width: 0.703424; stroke-opacity: 0.87; stroke: rgb(80, 80, 80);"></path><path class="link" marker-end="" d="M585,352, 660,352" style="stroke-width: 1.13458; stroke-opacity: 0.87; stroke: rgb(80, 80, 80);"></path><path class="link" marker-end="" d="M585,392, 660,312" style="stroke-width: 0.132827; stroke-opacity: 0.87; stroke: rgb(80, 80, 80);"></path><path class="link" marker-end="" d="M585,392, 660,352" style="stroke-width: 1.40465; stroke-opacity: 0.87; stroke: rgb(80, 80, 80);"></path><path class="link" marker-end="" d="M660,272, 735,292" style="stroke-width: 0.607947; stroke-opacity: 0.87; stroke: rgb(80, 80, 80);"></path><path class="link" marker-end="" d="M660,272, 735,332" style="stroke-width: 1.23509; stroke-opacity: 0.87; stroke: rgb(80, 80, 80);"></path><path class="link" marker-end="" d="M660,312, 735,292" style="stroke-width: 1.23623; stroke-opacity: 0.87; stroke: rgb(80, 80, 80);"></path><path class="link" marker-end="" d="M660,312, 735,332" style="stroke-width: 1.99009; stroke-opacity: 0.87; stroke: rgb(80, 80, 80);"></path><path class="link" marker-end="" d="M660,352, 735,292" style="stroke-width: 0.118207; stroke-opacity: 0.87; stroke: rgb(80, 80, 80);"></path><path class="link" marker-end="" d="M660,352, 735,332" style="stroke-width: 1.5757; stroke-opacity: 0.87; stroke: rgb(80, 80, 80);"></path><path class="link" marker-end="" d="M585,232, 660,272" style="stroke-width: 0.12827; stroke-opacity: 0.87; stroke: rgb(80, 80, 80);"></path><path class="link" marker-end="" d="M585,272, 660,272" style="stroke-width: 0.629994; stroke-opacity: 0.87; stroke: rgb(80, 80, 80);"></path><path class="link" marker-end="" d="M585,312, 660,272" style="stroke-width: 1.26817; stroke-opacity: 0.87; stroke: rgb(80, 80, 80);"></path><path class="link" marker-end="" d="M585,352, 660,272" style="stroke-width: 0.429733; stroke-opacity: 0.87; stroke: rgb(80, 80, 80);"></path><path class="link" marker-end="" d="M585,392, 660,272" style="stroke-width: 1.38507; stroke-opacity: 0.87; stroke: rgb(80, 80, 80);"></path><circle r="10" class="node" id="0_0" cx="585" cy="232" style="fill: rgb(255, 255, 255); stroke: rgb(51, 51, 51);"></circle><circle r="10" class="node" id="0_1" cx="585" cy="272" style="fill: rgb(255, 255, 255); stroke: rgb(51, 51, 51);"></circle><circle r="10" class="node" id="0_2" cx="585" cy="312" style="fill: rgb(255, 255, 255); stroke: rgb(51, 51, 51);"></circle><circle r="10" class="node" id="0_3" cx="585" cy="352" style="fill: rgb(255, 255, 255); stroke: rgb(51, 51, 51);"></circle><circle r="10" class="node" id="0_4" cx="585" cy="392" style="fill: rgb(255, 255, 255); stroke: rgb(51, 51, 51);"></circle><circle r="10" class="node" id="1_0" cx="660" cy="272" style="fill: rgb(255, 255, 255); stroke: rgb(51, 51, 51);"></circle><circle r="10" class="node" id="1_1" cx="660" cy="312" style="fill: rgb(255, 255, 255); stroke: rgb(51, 51, 51);"></circle><circle r="10" class="node" id="1_2" cx="660" cy="352" style="fill: rgb(255, 255, 255); stroke: rgb(51, 51, 51);"></circle><circle r="10" class="node" id="2_0" cx="735" cy="292" style="fill: rgb(255, 255, 255); stroke: rgb(51, 51, 51);"></circle><circle r="10" class="node" id="2_1" cx="735" cy="332" style="fill: rgb(255, 255, 255); stroke: rgb(51, 51, 51);"></circle><text class="text" dy=".35em" x="550" y="432" style="font-size: 12px;"></text><text class="text" dy=".35em" x="625" y="432" style="font-size: 12px;"></text><text class="text" dy=".35em" x="700" y="432" style="font-size: 12px;"></text></g><defs><marker id="arrow" viewBox="0 -5 10 10" markerWidth="7" markerHeight="7" orient="auto" refX="40"><path d="M0,-5L10,0L0,5" style="stroke: rgb(80, 80, 80); fill: none;"></path></marker></defs></svg>